<mxfile host="Electron" agent="Mozilla/5.0 (Windows NT 10.0; Win64; x64) AppleWebKit/537.36 (KHTML, like Gecko) draw.io/24.7.17 Chrome/128.0.6613.36 Electron/32.0.1 Safari/537.36" version="24.7.17">
  <diagram name="Page-1" id="VulnmU6ELANvw6dGD5pS">
    <mxGraphModel dx="794" dy="519" grid="1" gridSize="10" guides="1" tooltips="1" connect="1" arrows="1" fold="1" page="1" pageScale="1" pageWidth="850" pageHeight="1100" math="0" shadow="0">
      <root>
        <mxCell id="0" />
        <mxCell id="1" parent="0" />
        <mxCell id="OTUWDDNkg0gVeNgpgUJu-1" value="Tests Repository" style="verticalLabelPosition=bottom;html=1;verticalAlign=top;align=center;strokeColor=none;fillColor=#00BEF2;shape=mxgraph.azure.git_repository;" vertex="1" parent="1">
          <mxGeometry x="350" y="200" width="60" height="60" as="geometry" />
        </mxCell>
        <mxCell id="OTUWDDNkg0gVeNgpgUJu-3" value="" style="verticalLabelPosition=bottom;html=1;verticalAlign=top;align=center;strokeColor=none;fillColor=#00BEF2;shape=mxgraph.azure.user;" vertex="1" parent="1">
          <mxGeometry x="50" y="200" width="47.5" height="50" as="geometry" />
        </mxCell>
        <mxCell id="OTUWDDNkg0gVeNgpgUJu-4" value="" style="endArrow=classic;html=1;rounded=0;entryX=0.5;entryY=1;entryDx=0;entryDy=0;" edge="1" parent="1" source="OTUWDDNkg0gVeNgpgUJu-1" target="OTUWDDNkg0gVeNgpgUJu-6">
          <mxGeometry relative="1" as="geometry">
            <mxPoint x="350" y="260" as="sourcePoint" />
            <mxPoint x="323.336" y="99.01440000000002" as="targetPoint" />
          </mxGeometry>
        </mxCell>
        <mxCell id="OTUWDDNkg0gVeNgpgUJu-8" value="" style="group" vertex="1" connectable="0" parent="1">
          <mxGeometry x="330" y="56.3" width="100" height="89.8" as="geometry" />
        </mxCell>
        <mxCell id="OTUWDDNkg0gVeNgpgUJu-6" value="&lt;font color=&quot;#cc00cc&quot;&gt;Xeet Server&lt;/font&gt;" style="points=[[0,0],[0.25,0],[0.5,0],[0.75,0],[1,0],[1,0.25],[1,0.5],[1,0.75],[1,1],[0.75,1],[0.5,1],[0.25,1],[0,1],[0,0.75],[0,0.5],[0,0.25]];outlineConnect=0;gradientColor=none;html=1;whiteSpace=wrap;fontSize=12;fontStyle=0;container=1;pointerEvents=0;collapsible=0;recursiveResize=0;shape=mxgraph.aws4.group;grIcon=mxgraph.aws4.group_on_premise;strokeColor=#7D8998;fillColor=none;verticalAlign=top;align=left;spacingLeft=30;fontColor=#5A6C86;dashed=0;" vertex="1" parent="OTUWDDNkg0gVeNgpgUJu-8">
          <mxGeometry width="100" height="89.80000000000001" as="geometry" />
        </mxCell>
        <mxCell id="OTUWDDNkg0gVeNgpgUJu-10" value="Rest" style="edgeStyle=none;orthogonalLoop=1;jettySize=auto;html=1;rounded=0;exitX=1;exitY=0.5;exitDx=0;exitDy=0;" edge="1" parent="1" source="OTUWDDNkg0gVeNgpgUJu-20" target="OTUWDDNkg0gVeNgpgUJu-6">
          <mxGeometry width="80" relative="1" as="geometry">
            <mxPoint x="230" y="110" as="sourcePoint" />
            <mxPoint x="240" y="440" as="targetPoint" />
            <Array as="points" />
          </mxGeometry>
        </mxCell>
        <mxCell id="OTUWDDNkg0gVeNgpgUJu-17" value="Personal Computer, &lt;font color=&quot;#cc00cc&quot;&gt;Xeet installed locally&lt;/font&gt;" style="points=[[0,0],[0.25,0],[0.5,0],[0.75,0],[1,0],[1,0.25],[1,0.5],[1,0.75],[1,1],[0.75,1],[0.5,1],[0.25,1],[0,1],[0,0.75],[0,0.5],[0,0.25]];outlineConnect=0;gradientColor=none;html=1;whiteSpace=wrap;fontSize=12;fontStyle=0;container=1;pointerEvents=0;collapsible=0;recursiveResize=0;shape=mxgraph.aws4.group;grIcon=mxgraph.aws4.group_on_premise;strokeColor=#7D8998;fillColor=none;verticalAlign=top;align=left;spacingLeft=30;fontColor=#5A6C86;dashed=0;" vertex="1" parent="1">
          <mxGeometry x="115" y="185" width="100" height="90" as="geometry" />
        </mxCell>
        <mxCell id="OTUWDDNkg0gVeNgpgUJu-19" value="" style="edgeStyle=none;orthogonalLoop=1;jettySize=auto;html=1;rounded=0;entryX=1;entryY=0.5;entryDx=0;entryDy=0;exitX=0;exitY=0.5;exitDx=0;exitDy=0;exitPerimeter=0;" edge="1" parent="1" source="OTUWDDNkg0gVeNgpgUJu-1" target="OTUWDDNkg0gVeNgpgUJu-17">
          <mxGeometry width="80" relative="1" as="geometry">
            <mxPoint x="430" y="270" as="sourcePoint" />
            <mxPoint x="510" y="270" as="targetPoint" />
            <Array as="points" />
          </mxGeometry>
        </mxCell>
        <mxCell id="OTUWDDNkg0gVeNgpgUJu-20" value="PC, &lt;font color=&quot;#cc00cc&quot;&gt;Xeet remote client installe&lt;/font&gt;d" style="points=[[0,0],[0.25,0],[0.5,0],[0.75,0],[1,0],[1,0.25],[1,0.5],[1,0.75],[1,1],[0.75,1],[0.5,1],[0.25,1],[0,1],[0,0.75],[0,0.5],[0,0.25]];outlineConnect=0;gradientColor=none;html=1;whiteSpace=wrap;fontSize=12;fontStyle=0;container=1;pointerEvents=0;collapsible=0;recursiveResize=0;shape=mxgraph.aws4.group;grIcon=mxgraph.aws4.group_on_premise;strokeColor=#7D8998;fillColor=none;verticalAlign=top;align=left;spacingLeft=30;fontColor=#5A6C86;dashed=0;" vertex="1" parent="1">
          <mxGeometry x="115" y="56.3" width="100" height="90" as="geometry" />
        </mxCell>
        <mxCell id="OTUWDDNkg0gVeNgpgUJu-21" value="" style="verticalLabelPosition=bottom;html=1;verticalAlign=top;align=center;strokeColor=none;fillColor=#00BEF2;shape=mxgraph.azure.user;" vertex="1" parent="1">
          <mxGeometry x="50" y="76.3" width="47.5" height="50" as="geometry" />
        </mxCell>
        <mxCell id="OTUWDDNkg0gVeNgpgUJu-23" value="" style="group" vertex="1" connectable="0" parent="1">
          <mxGeometry x="530" y="56.3" width="100" height="89.8" as="geometry" />
        </mxCell>
        <mxCell id="OTUWDDNkg0gVeNgpgUJu-24" value="CI/CD Server, &lt;font color=&quot;#cc00cc&quot;&gt;Xeet remote client installed&lt;/font&gt;&amp;nbsp;" style="points=[[0,0],[0.25,0],[0.5,0],[0.75,0],[1,0],[1,0.25],[1,0.5],[1,0.75],[1,1],[0.75,1],[0.5,1],[0.25,1],[0,1],[0,0.75],[0,0.5],[0,0.25]];outlineConnect=0;gradientColor=none;html=1;whiteSpace=wrap;fontSize=12;fontStyle=0;container=1;pointerEvents=0;collapsible=0;recursiveResize=0;shape=mxgraph.aws4.group;grIcon=mxgraph.aws4.group_on_premise;strokeColor=#7D8998;fillColor=none;verticalAlign=top;align=left;spacingLeft=30;fontColor=#5A6C86;dashed=0;" vertex="1" parent="OTUWDDNkg0gVeNgpgUJu-23">
          <mxGeometry width="100" height="89.80000000000001" as="geometry" />
        </mxCell>
        <mxCell id="OTUWDDNkg0gVeNgpgUJu-25" value="Rest" style="edgeStyle=none;orthogonalLoop=1;jettySize=auto;html=1;rounded=0;entryX=1;entryY=0.5;entryDx=0;entryDy=0;" edge="1" parent="1" source="OTUWDDNkg0gVeNgpgUJu-24" target="OTUWDDNkg0gVeNgpgUJu-6">
          <mxGeometry width="80" relative="1" as="geometry">
            <mxPoint x="550" y="180" as="sourcePoint" />
            <mxPoint x="630" y="180" as="targetPoint" />
            <Array as="points" />
          </mxGeometry>
        </mxCell>
      </root>
    </mxGraphModel>
  </diagram>
</mxfile>
